<?xml version="1.0" encoding="UTF-8"?>
<svg width="288px" height="325px" viewBox="0 0 288 325" version="1.1" xmlns="http://www.w3.org/2000/svg" xmlns:xlink="http://www.w3.org/1999/xlink">
    <!-- Generator: Sketch 43.1 (39012) - http://www.bohemiancoding.com/sketch -->
    <title>blockEDU_Logo_White</title>
    <desc>Created with Sketch.</desc>
    <defs></defs>
    <g id="Welcome" stroke="none" stroke-width="1" fill="none" fill-rule="evenodd">
        <g id="Letter" transform="translate(-162.000000, -234.000000)" fill-rule="nonzero" fill="#FFFFFF">
            <g id="blockEDU_Logo_White" transform="translate(162.000000, 234.000000)">
                <path d="M57.6,208.4 L57.6,175.1 L129.6,133.5 L129.6,166.8 L57.6,208.4 Z M129.6,33.8 L28.8,92 L28.8,125.2 L129.6,67 L129.6,100.3 L0,175.1 L0,164.3 L0,141.8 L0,108.6 L0,78.9 L0,75.3 L129.6,0.5 L129.6,33.8 Z M288,75.1 L288,108.4 L288,175.1 L259.2,158.5 L259.2,91.7 L187.2,50.2 L187.2,150.2 L230.4,175.1 L230.4,208.4 L158.4,166.8 L158.4,165.8 L158.4,133.5 L158.4,33.5 L158.4,23.9 L158.4,0.3 L288,75.1 Z M287.7,208.2 L288,208 L288,208.4 L288,233.3 L288,241.2 L172.7,307.8 L172.9,308 L144.1,324.6 L0,241.4 L0,238.7 L0,208.4 L0,208.1 L0.2,208.3 L28.8,191.7 L28.8,224.8 L143.9,291.2 L259.2,224.6 L259.2,191.7 L287.7,208.2 Z" id="Combined-Shape"></path>
            </g>
        </g>
    </g>
</svg>